<svg width="183" height="67" viewBox="0 0 183 67" fill="none" xmlns="http://www.w3.org/2000/svg">
<g clip-path="url(#clip0_2_1978)">
<path fill-rule="evenodd" clip-rule="evenodd" d="M15.41 33.0489C7.60419 35.8159 1.79713 45.0432 0.379655 56.9313L0 60.1157L3.2631 58.4342C7.63537 56.1806 10.8784 56.5474 26.6597 61.0833C51.058 68.096 60.3312 68.3517 69.6016 62.27C71.4895 61.0314 78.0988 54.8643 84.2884 48.5649C96.3134 36.3267 96.7734 35.3265 89.2217 37.8365C86.4 38.7743 84.059 40.5695 77.4843 46.8391C70.9458 53.074 68.4849 54.9649 65.4117 56.1148C58.2079 58.8119 48.8176 57.7292 41.0242 53.304C35.4957 50.1642 28.9357 45.1229 29.4005 44.3708C29.6291 44 31.4345 43.6915 33.4125 43.6853C42.1175 43.6561 52.2129 39.9512 54.6975 35.8748C56.7536 32.5006 56.5015 31.7997 53.6583 32.9884C50.5115 34.3042 41.3173 34.2869 34.3499 32.9533C27.5845 31.6576 19.2142 31.6999 15.41 33.0489ZM80.7502 35.7014C77.5266 36.8516 75.1538 39.012 70.0644 45.4299C67.9487 48.0985 64.7894 51.6481 63.0442 53.3187C60.4123 55.8375 60.1664 56.2681 61.6032 55.8438C65.1685 54.7909 69.8096 51.136 77.873 43.0308C86.3771 34.4837 86.7374 33.566 80.7502 35.7014ZM70.4503 37.8122C69.0322 38.7762 66.6469 41.3693 65.1504 43.5744C63.654 45.7786 60.5113 49.3594 58.167 51.5316C55.8218 53.7034 54.0871 55.4806 54.3116 55.4806C56.0504 55.4806 60.2648 52.7953 63.7903 49.4405C68.1405 45.3011 73.6448 37.9051 73.2528 36.7273C73.1301 36.3593 71.8693 36.848 70.4503 37.8122Z" fill="#C4093D"/>
<path d="M79.5248 27.9331C79.5248 12.5061 67.0187 0 51.5917 0C36.1647 0 23.6587 12.5061 23.6587 27.9331V28.1319C23.6587 43.5589 36.1647 56.0649 51.5917 56.0649C67.0187 56.0649 79.5248 43.5589 79.5248 28.1319V27.9331Z" fill="#F87E0D"/>
<path fill-rule="evenodd" clip-rule="evenodd" d="M48.2762 4.2842C47.1698 4.73162 46.609 6.32391 47.1802 7.39508C47.9708 8.87733 50.4699 8.72508 51.1846 7.15146C51.6447 6.13873 51.587 5.75467 50.8536 4.94135C49.9637 3.95514 49.4281 3.8186 48.2762 4.2842ZM56.072 5.23653C54.6853 5.93 53.0879 7.14999 52.5214 7.9476L51.4926 9.39746L53.8378 7.90537C55.1279 7.08418 56.68 6.4128 57.2866 6.4128C58.5035 6.4128 60.4381 8.67547 61.2753 11.0786C61.6463 12.1439 61.7986 12.2799 61.8246 11.5698C61.8863 9.89449 60.9499 7.17995 59.7455 5.5425L58.5937 3.97626L56.072 5.23653ZM52.8099 5.43053C52.3228 5.97078 52.1441 6.4128 52.4133 6.4128C52.6825 6.4128 53.3018 5.97078 53.7889 5.43053C54.276 4.89027 54.4547 4.44824 54.1855 4.44824C53.9161 4.44824 53.297 4.89027 52.8099 5.43053ZM44.4588 6.18295C45.696 7.12152 46.4929 7.11168 45.7115 6.16722C45.3763 5.76204 44.7437 5.4374 44.3057 5.44623C43.6359 5.45949 43.6604 5.57687 44.4588 6.18295ZM39.5999 6.40053C38.8058 7.68976 37.9966 12.4101 38.3609 13.6276L38.774 15.0077L38.816 13.6414C38.867 11.9862 40.1398 8.80072 40.9578 8.28011C41.7214 7.79338 44.5652 8.29926 46.4459 9.25551C47.8239 9.95636 47.8714 9.95047 47.2159 9.15777C45.8785 7.53996 40.1707 5.47422 39.5999 6.40053ZM61.8735 7.24331C61.8779 7.46186 62.0948 7.97216 62.3557 8.37735C62.7644 9.0124 62.831 8.99914 62.838 8.28355C62.8418 7.82678 62.625 7.31649 62.3557 7.14951C62.0865 6.98251 61.8696 7.02476 61.8735 7.24331ZM54.1467 8.3803C51.4993 9.99516 51.4588 13.5343 54.0871 13.5343C54.9652 13.5343 55.298 13.2278 55.4215 12.3065C55.5537 11.3139 55.4646 11.1965 54.9565 11.6925C53.9334 12.691 52.969 12.4302 53.1427 11.2014C53.2411 10.5094 53.6924 10.0399 54.3509 9.94606C54.9384 9.86206 55.5239 9.32966 55.6776 8.73933C56.0499 7.31109 55.9408 7.28556 54.1467 8.3803ZM56.6056 8.54533C55.9501 9.98829 56.6766 11.528 57.453 10.3419C58.0434 9.43919 58.1031 7.39508 57.5392 7.39508C57.313 7.39508 56.8931 7.91273 56.6056 8.54533ZM58.7786 9.39155C58.5882 10.1234 58.7625 10.8684 59.2516 11.4106C59.6781 11.8831 59.8968 12.6095 59.7381 13.025C59.3665 13.996 57.95 14.0102 57.95 13.0432C57.95 12.2323 57.1877 12.0481 56.7535 12.7534C56.3016 13.4872 56.9919 14.7027 58.0528 15.0406C59.6647 15.5539 61.0845 13.7617 60.6992 11.7009C60.5264 10.7771 60.0916 9.61895 59.7333 9.12683C59.117 8.28159 59.0641 8.29632 58.7786 9.39155ZM63.9334 9.14206C63.3348 9.56247 62.8453 10.3232 62.8453 10.8331C62.8453 11.6867 64.5132 13.2887 65.4021 13.2887C65.9528 13.2887 67.7405 11.4116 67.7405 10.8331C67.7405 10.2545 65.9528 8.37735 65.4021 8.37735C65.1925 8.37735 64.5317 8.72164 63.9334 9.14206ZM41.3059 9.92198C41.3059 11.1037 42.0959 12.3065 42.8723 12.3065C43.6433 12.3065 43.2453 10.4775 42.2848 9.6052C41.3313 8.73933 41.3059 8.74718 41.3059 9.92198ZM43.7183 9.78446C44.06 10.4254 44.7527 10.8331 45.4996 10.8331C46.8497 10.8331 47.611 12.0707 46.7764 12.9081C46.3911 13.2946 46.0328 13.2686 45.4875 12.8148C44.8495 12.2839 44.7326 12.3399 44.7326 13.1763C44.7326 14.3987 45.9559 14.9287 47.2154 14.2519C49.3003 13.1326 47.6086 9.84389 44.5572 9.08411C43.2459 8.757 43.1934 8.80072 43.7183 9.78446ZM36.6396 10.3915C36.4598 10.9588 36.5555 11.666 36.8515 11.9632C37.2428 12.3556 37.3895 12.0737 37.3895 10.9313C37.3895 9.11701 37.1072 8.91367 36.6396 10.3915ZM49.3568 10.4794C48.9323 11.5894 49.5212 13.9041 50.1315 13.5255C50.7323 13.1532 50.7351 11.3055 50.1361 10.3556C49.7458 9.73633 49.6343 9.7545 49.3568 10.4794ZM39.5681 12.5093C38.9786 15.6614 40.6695 17.8568 42.8043 16.711C43.9131 16.1152 43.9523 14.2489 42.8636 13.8889C42.4572 13.7548 42.2755 14.0063 42.3739 14.5696C42.5781 15.741 40.922 16.1015 40.4927 14.9788C40.3164 14.5181 40.4237 13.7367 40.7311 13.2431C41.3049 12.3212 41.0365 10.8331 40.2963 10.8331C40.0683 10.8331 39.7402 11.5874 39.5681 12.5093ZM32.7733 13.3889C32.1295 14.3108 32.1158 14.6197 32.6816 15.4763C33.0468 16.0288 33.721 16.5558 34.1803 16.6471C35.2091 16.8515 36.9 15.3879 36.9 14.2931C36.9 12.2244 34.026 11.5948 32.7733 13.3889ZM67.9854 13.2887C69.3453 13.8752 70.3048 13.8752 69.9435 13.2887C69.7771 13.0186 69.0481 12.8133 68.3236 12.832C67.1472 12.8629 67.111 12.912 67.9854 13.2887ZM61.3767 14.7622C60.3407 15.8014 60.0936 16.7267 60.8524 16.7267C61.5505 16.7267 62.8453 15.268 62.8453 14.4817C62.8453 13.5382 62.5384 13.5967 61.3767 14.7622ZM65.0863 14.7003C64.8577 15.0711 65.3277 15.2533 66.5124 15.2533C68.4665 15.2533 70.9087 16.325 71.3034 17.3559C71.6465 18.2542 71.0024 21.5967 70.1936 23.1115C69.5743 24.2722 69.5876 24.299 70.4306 23.6026C71.6543 22.5918 73.1014 19.2575 73.1146 17.4197C73.1229 16.2356 72.8293 15.7665 71.7791 15.2852C69.8485 14.4007 65.5048 14.021 65.0863 14.7003ZM49.6279 15.0323C49.6279 15.1806 49.9504 15.9281 50.3445 16.6928C51.3966 18.7335 53.827 19.011 55.6468 17.2974C56.9136 16.1044 56.9522 15.963 56.1651 15.3859C55.3485 14.7867 49.6279 14.4773 49.6279 15.0323ZM45.1873 16.2238C44.2254 16.7341 43.1636 17.484 42.8274 17.8907C42.3146 18.5105 42.4669 18.7605 43.7691 19.4363C46.4772 20.8415 48.6488 19.1711 48.6488 15.683C48.6488 14.9827 47.0593 15.2312 45.1873 16.2238ZM63.4326 16.3338C62.0654 17.7056 63.3569 20.6381 65.0418 19.9894C66.0398 19.6053 65.9885 18.292 64.9786 18.3774C64.536 18.4152 64.0774 18.1697 63.9585 17.8323C63.6408 16.9271 65.2742 16.4787 66.3752 17.1687C67.1041 17.6255 67.49 17.6304 68.0182 17.1903C68.3979 16.8741 68.588 16.4193 68.4407 16.1801C68.0417 15.5323 64.1112 15.6531 63.4326 16.3338ZM49.1383 17.4482C49.1383 18.3175 49.3434 18.5812 49.8637 18.3814C50.4126 18.1697 50.4679 17.875 50.0914 17.1687C49.4208 15.9119 49.1383 15.9944 49.1383 17.4482ZM57.3458 18.0773C57.1687 19.5483 57.3546 20.1367 58.2691 20.9991C59.2462 21.92 59.7206 22.0236 61.497 21.7029L63.5795 21.3268L61.0795 18.7812C59.7043 17.3809 58.3518 16.2356 58.0733 16.2356C57.7953 16.2356 57.4677 17.0646 57.3458 18.0773ZM31.148 17.0518C30.146 17.4575 30.4543 18.1294 31.5152 17.8514C32.0536 17.71 32.4941 17.3991 32.4941 17.1604C32.4941 16.6923 32.1124 16.6614 31.148 17.0518ZM38.3686 17.9546C39.001 18.6299 39.7001 19.1824 39.9223 19.1824C40.714 19.1824 40.3106 17.735 39.38 17.235C37.6935 16.3299 37.1855 16.6909 38.3686 17.9546ZM55.6432 18.1564C55.1792 18.902 55.1949 19.1475 55.7195 19.3494C56.1342 19.509 56.4653 19.1598 56.6076 18.4108C56.8804 16.9801 56.4466 16.8657 55.6432 18.1564ZM68.7584 17.8391C68.1063 18.1726 67.482 18.7222 67.3715 19.0596C67.0601 20.0065 68.9512 19.7914 69.8676 18.7752C71.2974 17.1903 70.8173 16.7852 68.7584 17.8391ZM32.8683 18.1982C31.08 18.7384 28.0885 20.619 28.0885 21.2035C28.0885 22.2339 30.5855 26.5289 31.5989 27.2406C32.949 28.1893 33.4067 27.8323 32.3468 26.6575C31.9096 26.1732 31.1999 24.9296 30.7686 23.8948C30.0098 22.0723 30.0205 21.9741 31.1172 20.7826C31.7398 20.1057 33.1305 19.1529 34.2075 18.6652C36.2435 17.7429 35.3761 17.4403 32.8683 18.1982ZM33.9628 19.4977C32.312 20.2375 32.2886 20.2836 33.3236 20.7687C34.1508 21.1568 34.5801 21.089 35.194 20.4731C36.206 19.4579 37.1996 19.4506 37.5839 20.456C37.7837 20.9774 37.5565 21.3238 36.902 21.4952C35.7413 21.7997 35.6189 22.5349 36.6616 22.9361C37.6123 23.3026 38.8581 22.2691 38.8581 21.1146C38.8581 20.2226 37.1326 18.6741 36.1789 18.7104C35.9024 18.7212 34.9051 19.0753 33.9628 19.4977ZM40.4198 20.8655C39.4088 22.3459 38.1969 25.5585 38.5253 25.8879C38.602 25.965 39.4637 25.8982 40.4398 25.7392C42.7317 25.3658 43.7149 23.4244 42.7699 21.1367C41.9152 19.0655 41.6685 19.0375 40.4198 20.8655ZM52.498 20.3385C53.2495 21.1411 53.9495 21.424 54.7861 21.2639C55.4493 21.1367 55.9917 20.8729 55.9917 20.6774C55.9917 20.1627 53.6739 19.1824 52.4568 19.1824H51.4151L52.498 20.3385ZM69.5763 19.8832C69.1049 20.2329 68.7196 21.0782 68.7196 21.7624C68.7196 23.1699 67.584 23.86 66.809 22.9234C66.4502 22.4892 66.4522 22.1449 66.8158 21.7801C67.1609 21.4337 67.1703 21.1548 66.8438 20.9524C66.3313 20.6347 64.8034 21.8842 64.8034 22.6204C64.8034 23.199 66.2323 24.5849 66.8285 24.5849C68.4632 24.5849 70.9441 21.5035 70.5847 19.9192C70.4598 19.3666 70.2823 19.3602 69.5763 19.8832ZM43.2512 20.6323C43.5546 21.2005 44.0119 21.5359 44.2676 21.3773C44.9431 20.9584 44.8521 20.7546 43.7163 20.1446C42.7836 19.6441 42.7455 19.6844 43.2512 20.6323ZM46.9766 20.6244L45.5485 21.5683L47.2213 22.2701C48.1412 22.6562 48.917 22.9479 48.9454 22.919C48.9744 22.8896 49.1339 22.1479 49.3003 21.2697C49.6578 19.3877 49.086 19.2291 46.9766 20.6244ZM49.8623 21.2747C49.3405 24.0658 51.0304 27.0356 52.0511 25.1223C52.8069 23.7053 52.6771 21.3297 51.796 20.445C50.653 19.2988 50.1951 19.4953 49.8623 21.2747ZM73.148 21.1047C72.8474 21.6685 72.8058 22.1292 73.0559 22.1292C73.5591 22.1292 74.2534 20.6417 73.9112 20.2977C73.7917 20.1784 73.4486 20.5415 73.148 21.1047ZM31.9367 22.6365C33.256 23.7391 33.7635 23.832 34.2413 23.0564C34.6775 22.3483 33.559 21.6508 32.0047 21.6622L30.7808 21.6711L31.9367 22.6365ZM54.0728 22.3272C53.7594 22.7063 53.3042 23.7121 53.061 24.5628C52.7061 25.8034 52.7741 26.1694 53.4026 26.4116C54.373 26.7853 56.9708 24.0191 56.9708 22.6125C56.9708 21.4447 54.9666 21.2472 54.0728 22.3272ZM57.3371 23.8006L56.5444 25.467L58.2265 25.664C60.1387 25.8879 60.3011 25.4386 59.0152 23.4823L58.1291 22.1337L57.3371 23.8006ZM62.2636 23.4705C60.4769 25.3815 60.8377 27.5834 63.1169 28.6737C64.2026 29.1927 64.8734 29.2886 65.08 28.9536C65.5015 28.2695 64.9042 24.6119 64.1454 23.225L63.5354 22.1111L62.2636 23.4705ZM45.2221 23.837C45.2221 25.1527 46.5507 26.267 48.7713 26.8152C50.6202 27.271 50.5794 25.9553 48.6866 24.056C46.8708 22.2343 45.2221 22.1298 45.2221 23.837ZM59.9081 23.0825C59.9081 23.9332 60.7695 24.0908 61.3811 23.3517C61.8849 22.7431 61.8119 22.6204 60.9469 22.6204C60.3755 22.6204 59.9081 22.8282 59.9081 23.0825ZM72.0241 23.6419C70.2813 24.66 71.275 27.5317 73.3702 27.5317C75.4317 27.5317 76.2824 25.3668 74.8041 23.8831C73.919 22.9956 73.2327 22.9357 72.0241 23.6419ZM43.2624 25.3261C42.5194 27.5848 42.7763 28.1472 44.0692 27.0893C44.8294 26.467 45.0503 25.8682 44.8686 24.9165C44.5264 23.1188 43.9389 23.2688 43.2624 25.3261ZM31.5152 24.4753C31.5152 25.3094 33.1496 27.1281 34.2888 27.5627C35.6751 28.0917 37.1032 27.516 37.5947 26.2303C38.0151 25.1316 36.7386 23.8624 35.6389 24.2859C34.8367 24.5948 34.8371 24.6453 35.6453 25.2382C36.4223 25.8084 36.429 25.9229 35.7203 26.5126C34.7608 27.3118 33.4733 26.4541 33.4733 25.0161C33.4733 24.4215 33.1258 24.0938 32.4941 24.0938C31.9558 24.0938 31.5152 24.2656 31.5152 24.4753ZM28.5779 25.6984C28.5779 26.4336 29.9056 27.8382 30.2609 27.4792C30.3657 27.3732 30.0305 26.7647 29.5149 26.1267C28.8766 25.3368 28.5779 25.2004 28.5779 25.6984ZM66.2721 26.0295C66.2721 26.8014 67.2403 27.1498 68.5027 26.8319C70.2827 26.3839 69.9483 25.5672 67.9854 25.5672C67.043 25.5672 66.2721 25.775 66.2721 26.0295ZM40.6072 26.5293C39.711 26.8519 39.7084 26.8859 40.555 27.212C41.5275 27.5863 41.9955 27.3599 41.7238 26.6462C41.6283 26.3953 41.1261 26.3428 40.6072 26.5293ZM55.135 26.5422C54.5296 26.7991 54.0336 27.3412 54.0336 27.7474C54.0336 28.7327 56.8945 29.4796 58.2902 28.8587C59.3059 28.407 60.1616 27.1311 59.7353 26.7036C59.2604 26.2273 56.1362 26.1173 55.135 26.5422ZM44.4427 27.6551C43.2115 28.6269 43.189 28.7178 44.03 29.3347C45.126 30.1387 46.7362 30.1691 48.381 29.4172C50.327 28.5277 49.9832 27.847 47.1808 27.0406C46.0483 26.715 45.4692 26.8446 44.4427 27.6551ZM50.3558 27.5524C49.9544 28.8206 50.6476 29.655 51.9013 29.4128C52.496 29.2979 52.8099 28.8152 52.8099 28.016C52.8099 26.3726 50.8462 26.0014 50.3558 27.5524ZM38.3716 28.6472C38.3744 30.6013 39.2575 33.9165 39.775 33.9165C39.9846 33.9165 40.6351 33.4048 41.2206 32.7801C43.0407 30.8361 42.4435 28.7955 39.7148 27.6345C38.4064 27.0774 38.3686 27.106 38.3716 28.6472ZM66.5255 28.821C65.4178 29.9325 65.7619 31.6686 67.1287 31.8636C67.7341 31.9495 68.2302 31.7841 68.2302 31.4952C68.2302 31.2059 68.0099 30.9697 67.7405 30.9697C67.0939 30.9697 67.11 29.6417 67.7621 29.2375C68.4779 28.7935 69.6988 29.9236 69.6988 31.0296C69.6988 31.5369 69.901 31.9521 70.1481 31.9521C70.3952 31.9521 70.9461 32.0861 71.372 32.2501C72.6903 32.7574 72.236 31.4524 70.4819 29.6928C68.6335 27.8382 67.7083 27.6345 66.5255 28.821ZM70.7409 28.8106C71.9177 30.1838 73.1255 32.7451 73.1255 33.867C73.1255 34.9583 70.734 36.9518 68.4749 37.744L67.0063 38.2592L68.3681 38.2979C69.9536 38.3433 72.6863 37.2814 74.3371 35.9784L75.4914 35.0672L74.5265 32.9048C73.4486 30.4894 72.3921 29.1663 70.9278 28.3971C69.9988 27.909 69.988 27.9321 70.7409 28.8106ZM28.368 29.2856C27.4662 30.1908 27.4173 30.6938 28.1056 31.9845C29.0871 33.8247 32.0047 32.8817 32.0047 30.7242C32.0047 28.656 29.8468 27.8025 28.368 29.2856ZM59.0792 29.3951C58.1218 30.1427 58.0752 30.3612 58.651 31.4206L59.2961 32.6081L59.8777 31.5179C60.1974 30.9186 60.3902 30.0071 60.3061 29.493C60.1602 28.6039 60.0995 28.5991 59.0792 29.3951ZM61.3767 29.2969C61.3767 29.6767 61.8173 29.9874 62.3557 29.9874C62.8942 29.9874 63.3348 29.792 63.3348 29.5538C63.3348 29.315 62.8942 29.0043 62.3557 28.8627C61.7193 28.6957 61.3767 28.848 61.3767 29.2969ZM73.6003 29.4689C74.2015 30.5956 75.0836 31.2339 75.0836 30.5425C75.0836 30.0552 73.7422 28.514 73.3177 28.514C73.1929 28.514 73.3203 28.9438 73.6003 29.4689ZM34.8194 29.3387C33.328 29.7385 33.8948 30.5474 35.5538 30.3868C36.429 30.3023 37.1012 30.0121 37.0483 29.7419C36.9362 29.1721 36.0423 29.0106 34.8194 29.3387ZM53.3034 29.49C52.8646 30.2015 54.5384 32.2904 56.217 33.1258C57.7742 33.9014 58.4395 33.7698 58.4395 32.6873C58.4395 30.8932 54.1022 28.1933 53.3034 29.49ZM48.5265 30.0278C47.6561 30.5355 46.2012 32.9529 46.2012 33.8921C46.2012 34.635 48.919 34.5281 49.554 33.7604C50.2608 32.9058 50.4967 29.8928 49.8727 29.6884C49.6035 29.5999 48.9973 29.7526 48.5265 30.0278ZM43.264 30.6244C43.264 31.259 44.8839 33.9165 45.2706 33.9165C45.4501 33.9165 45.7082 33.53 45.8437 33.0571C45.9793 32.5841 46.2388 31.8365 46.4209 31.3956C46.6833 30.7586 46.3921 30.5512 45.0077 30.3888C44.0487 30.2767 43.264 30.3822 43.264 30.6244ZM50.9152 31.5837C50.3876 33.5604 50.5884 34.7295 51.6159 35.6625C52.4795 36.447 52.6898 36.4754 53.0771 35.8615C53.3258 35.467 53.5324 34.5221 53.5368 33.7614C53.5519 30.9407 51.5351 29.2645 50.9152 31.5837ZM61.3091 30.9787C60.0775 31.7 59.7832 33.7235 60.6624 35.4289C61.3312 36.7269 61.5445 36.8438 62.2171 36.2844C62.9656 35.6617 63.8189 33.9298 64.5332 31.5837C64.8269 30.6176 64.6961 30.4807 63.4899 30.4934C62.7316 30.5017 61.7501 30.7198 61.3091 30.9787ZM34.3393 32.7885C33.1409 34.1169 32.3703 36.3742 33.1184 36.3649C34.1077 36.3522 35.0888 35.5348 34.7584 34.998C34.2389 34.1553 34.9894 32.9344 36.0262 32.9344C36.827 32.9344 36.9499 33.1588 36.6988 34.162C36.3791 35.4406 36.6891 35.6651 37.7992 34.9587C38.1597 34.7295 38.38 34.0147 38.2889 33.37C38.0734 31.8405 35.5314 31.4668 34.3393 32.7885ZM31.5347 34.613C30.9585 35.8064 30.3643 37.5456 30.2136 38.4779C29.9458 40.134 29.9923 40.1904 32.2832 40.9737C34.89 41.8646 38.3686 42.042 38.3686 41.2837C38.3686 41.0135 37.7151 40.7924 36.9167 40.7924C36.1183 40.7924 34.6864 40.4202 33.7347 39.965C32.2631 39.2606 32.0047 38.8914 32.0047 37.4935C32.0047 36.5893 32.324 35.0829 32.714 34.1463C33.7455 31.6695 32.7683 32.0566 31.5347 34.613ZM41.7953 33.1799C41.2862 33.7952 41.3568 33.9165 42.2252 33.9165C42.8224 33.9165 43.264 33.6032 43.264 33.1799C43.264 32.7747 43.0705 32.4431 42.8341 32.4431C42.5981 32.4431 42.1307 32.7747 41.7953 33.1799ZM54.3157 33.3062C54.1604 33.4618 54.0336 34.2151 54.0336 34.981C54.0336 36.5957 54.8923 36.7858 56.4362 35.5128L57.4784 34.6533L56.0382 33.838C55.2462 33.3901 54.4708 33.1505 54.3157 33.3062ZM65.1048 33.6843C64.075 34.7175 64.1048 35.5392 65.2092 36.5416C66.344 37.5721 67.8556 37.5741 69.8348 36.5472L71.3905 35.7402L70.2278 35.3084C69.3765 34.9927 68.8274 35.0933 68.1763 35.6841C67.6878 36.1281 66.949 36.3609 66.5349 36.2019C65.545 35.8207 65.5627 34.4078 66.5573 34.4078C66.9838 34.4078 67.2456 34.1453 67.1389 33.8247C66.8281 32.8887 65.9581 32.8282 65.1048 33.6843ZM69.2091 33.671C69.8642 34.4626 72.1463 34.6945 72.1463 33.9692C72.1463 33.4278 70.9314 32.9344 69.5988 32.9344C68.7661 32.9344 68.7015 33.057 69.2091 33.671ZM29.914 34.2131C29.7175 34.4102 29.5571 34.9102 29.5571 35.3247C29.5571 35.8772 29.702 35.9323 30.1014 35.5309C30.401 35.2309 30.5621 34.7305 30.4587 34.4199C30.3555 34.1092 30.1102 34.0163 29.914 34.2131ZM41.0947 34.8483C40.2357 35.1857 40.341 35.4273 42.259 37.5146C43.4186 38.7775 44.6449 39.8103 44.9841 39.8103C45.3229 39.8103 45.7115 39.0918 45.8471 38.214C46.2766 35.4333 43.8964 33.7471 41.0947 34.8483ZM48.3977 35.1925L46.9354 35.7987L48.3716 36.3532C49.1619 36.6585 50.1924 36.8428 50.6608 36.7627C51.4632 36.6267 51.4646 36.5573 50.6868 35.6016C49.9514 34.699 49.6969 34.6533 48.3977 35.1925ZM58.6504 34.9539C58.4653 35.2539 58.6176 35.6925 58.9888 35.9283C60.1059 36.6384 60.4628 36.4297 59.9081 35.3899C59.3065 34.2619 59.117 34.196 58.6504 34.9539ZM37.977 36.4705C37.1487 37.3015 37.2465 38.0059 38.1424 37.6609C39.1201 37.2844 39.7164 38.7866 38.8116 39.3477C38.3971 39.6049 37.74 39.5101 37.1213 39.1029C36.3972 38.6272 35.8562 38.5794 35.2218 38.9359C34.5033 39.3393 34.4622 39.5147 35.0055 39.8604C36.2067 40.6236 39.1474 40.3548 40.006 39.4031C41.0174 38.2818 41.0273 37.6365 40.0472 36.6528C39.1239 35.7265 38.7509 35.6941 37.977 36.4705ZM56.4104 36.6512C55.5273 37.1154 55.0231 37.882 54.7935 39.1095C54.6104 40.0902 54.5662 40.9992 54.6954 41.1294C54.9913 41.4256 58.8522 39.6359 60.117 38.6162C61.1833 37.7568 61.1819 37.7544 59.1679 36.7283C57.9005 36.0826 57.5132 36.0716 56.4104 36.6512ZM33.7622 37.3059C33.2989 37.8192 33.0997 38.3456 33.319 38.4759C34.02 38.8918 35.9209 37.9051 35.9209 37.1247C35.9209 36.0859 34.7759 36.1818 33.7622 37.3059ZM46.6907 37.9057C46.6907 38.7769 46.8116 38.8476 47.4249 38.3369C47.8347 37.9959 48.1593 37.9425 48.1593 38.2164C48.1593 38.4866 47.8289 38.9826 47.4249 39.319C46.2036 40.3363 46.5678 40.6972 49.413 41.29C53.2034 42.0793 53.7678 41.7875 52.7189 39.5805C51.9914 38.0494 51.6781 37.8456 50.0558 37.8456C49.0444 37.8456 48.081 37.6248 47.9146 37.3546C47.3911 36.5048 46.6907 36.8202 46.6907 37.9057ZM63.4215 37.6703C63.6104 38.6349 65.1024 39.6737 65.5929 39.182C65.9802 38.7932 64.4151 36.8635 63.7127 36.8635C63.4654 36.8635 63.3342 37.2263 63.4215 37.6703ZM53.0547 38.828C53.3429 39.3681 53.6811 39.8103 53.806 39.8103C53.9314 39.8103 54.0336 39.3681 54.0336 38.828C54.0336 38.2725 53.7071 37.8456 53.2823 37.8456C52.6825 37.8456 52.6366 38.044 53.0547 38.828ZM71.1674 38.828C70.5344 39.2381 70.5475 39.3049 71.2608 39.3117C71.7161 39.3156 72.2247 39.0981 72.3911 38.828C72.774 38.2063 72.1259 38.2063 71.1674 38.828ZM41.3979 40.2095C40.3043 41.3061 39.9977 42.266 40.7404 42.266C41.4478 42.266 42.8856 40.3902 42.6715 39.7465C42.5331 39.329 42.1288 39.4757 41.3979 40.2095ZM60.0852 40.0558C59.7381 40.962 60.1934 42.266 60.8562 42.266C61.1256 42.266 61.2278 41.9571 61.0829 41.5789C60.6968 40.569 61.8461 40.0705 62.6656 40.8926C63.3764 41.6058 63.1209 43.2481 62.2994 43.2481C62.0566 43.2481 62.133 43.6903 62.4694 44.2305C63.3368 45.6243 63.6692 45.4603 64.0446 43.4529C64.4641 41.2069 63.3455 39.319 61.595 39.319C60.9194 39.319 60.2399 39.6506 60.0852 40.0558ZM67.6182 39.8495C66.3214 40.6073 66.484 43.172 67.8629 43.7084C70.3067 44.6593 72.2189 41.5873 70.1069 40.1035C68.8121 39.1934 68.752 39.187 67.6182 39.8495ZM43.5847 41.6908C43.1391 42.1849 42.7745 43.1686 42.7745 43.8778C42.7745 45.3233 43.7103 47.6685 44.2876 47.6685C45.0899 47.6685 44.9312 45.4122 44.0682 44.5464C43.257 43.7324 43.2389 43.5541 43.8988 42.8921C44.7869 42.0008 45.7909 42.4688 45.3674 43.5764C45.1618 44.1136 45.2857 44.2909 45.7561 44.1342C46.6794 43.8253 46.9124 42.3887 46.1815 41.5056C45.3901 40.5485 44.5616 40.6073 43.5847 41.6908ZM56.3462 41.8406C55.8523 42.1181 55.5022 42.901 55.5022 43.7281C55.5022 45.3822 57.4496 47.1773 59.2437 47.1773C60.2834 47.1773 60.3413 47.0737 59.7946 46.1951C59.4582 45.6548 58.6784 45.2128 58.0615 45.2128C57.4448 45.2128 56.8078 44.8665 56.6458 44.4432C56.2845 43.4992 57.1911 42.4133 57.6788 43.2054C58.1536 43.9766 58.9289 43.8617 58.9289 43.0199C58.9289 41.9771 57.3703 41.266 56.3462 41.8406ZM64.6796 43.2481C64.4768 44.1937 63.8585 45.7118 63.3054 46.6218C62.3513 48.191 62.1936 48.2594 60.2473 47.9475C59.1184 47.7667 57.7066 47.2985 57.1104 46.9067C55.6937 45.9764 55.2223 46.0015 56.0187 46.9641C56.9032 48.0333 58.9446 49.03 61.3713 49.5771L63.4269 50.0407L64.3873 47.8616C64.984 46.5085 65.2915 44.8949 65.1979 43.6058L65.0482 41.5292L64.6796 43.2481ZM33.2162 42.7374C33.3896 43.0183 34.1053 43.2481 34.8077 43.2481C36.3419 43.2481 36.1648 43.0129 34.2888 42.561C33.3792 42.3416 33.0103 42.4024 33.2162 42.7374ZM48.1768 42.9809C47.3603 43.9686 48.011 44.9653 48.9577 44.177C49.4717 43.7491 49.8178 43.7334 50.2031 44.1199C50.9745 44.8941 50.3166 46.1951 49.1536 46.1951C48.6066 46.1951 48.1593 46.3979 48.1593 46.6458C48.1593 46.894 48.008 47.4926 47.8229 47.9765C47.5243 48.7568 47.7044 48.7318 49.414 47.7584L51.3413 46.6602L49.9932 47.8791C49.2514 48.5497 47.851 49.2475 46.8806 49.4302C45.3328 49.7215 44.973 49.5888 43.9409 48.3467C43.2948 47.5687 42.63 46.3242 42.464 45.5812C42.2981 44.838 41.9657 44.2305 41.7248 44.2305C40.788 44.2305 43.0775 50.4233 44.431 51.5503C45.1173 52.1221 49.5132 50.2185 50.6333 48.8644C51.4498 47.8777 51.7357 43.7752 51.0461 42.9418C50.3166 42.0602 48.9229 42.0793 48.1768 42.9809ZM53.0547 44.2014C53.0547 44.9961 53.2592 45.7727 53.5089 45.9279C54.1062 46.2977 54.6308 44.5929 54.2374 43.5631C53.741 42.265 53.0547 42.6358 53.0547 44.2014ZM36.4159 43.9786C35.6018 44.9623 36.1789 47.0373 37.3724 47.4174C39.5464 48.1095 41.3214 45.4249 39.7392 43.8376C38.9277 43.0233 37.1433 43.0988 36.4159 43.9786ZM60.1886 44.1726C59.7882 44.8223 61.1119 47.1773 61.8775 47.1773C62.6465 47.1773 62.4296 45.9043 61.4544 44.6961C60.8137 43.9024 60.4481 43.7511 60.1886 44.1726ZM66.1677 45.2128C66.0492 46.0232 66.1339 46.6862 66.3567 46.6862C66.5794 46.6862 66.7615 46.0232 66.7615 45.2128C66.7615 44.4024 66.6762 43.7394 66.5721 43.7394C66.4683 43.7394 66.2862 44.4024 66.1677 45.2128ZM45.6984 46.2196C44.9368 47.6478 45.4565 48.9833 46.4517 48.1546C47.2698 47.4735 47.4235 45.9126 46.7151 45.4736C46.4597 45.315 46.0018 45.6508 45.6984 46.2196ZM40.8236 48.0367C40.8198 48.6443 41.0365 49.1419 41.3059 49.1419C41.9192 49.1419 41.9192 48.6208 41.3059 47.6685C40.922 47.0727 40.8299 47.1435 40.8236 48.0367ZM52.8445 48.4401C51.3661 49.9238 52.2171 52.0887 54.2783 52.0887C56.4289 52.0887 57.3689 49.1616 55.5346 48.1769C54.2481 47.4862 53.7467 47.5353 52.8445 48.4401ZM57.4603 49.6266C57.4603 49.966 58.6118 50.6153 59.2138 50.6153C59.8816 50.6153 59.2546 49.7048 58.4395 49.4906C57.9009 49.3497 57.4603 49.4105 57.4603 49.6266ZM49.6959 50.6575C48.9088 51.298 48.7726 51.5976 49.2691 51.5976C50.0019 51.5976 51.4019 50.2656 51.0441 49.9089C50.9383 49.804 50.3317 50.1403 49.6959 50.6575Z" fill="#FFF3F3"/>
<path fill-rule="evenodd" clip-rule="evenodd" d="M15.41 33.0489C7.60419 35.8159 1.79713 45.0432 0.379655 56.9313L0 60.1157L3.2631 58.4342C7.63537 56.1806 10.8784 56.5474 26.6597 61.0833C54.6591 69.131 67.3972 58.1276 56.5619 60.1157C49.3582 62.8128 48.8176 57.7292 41.0242 53.304C35.4957 50.1642 28.9357 45.1229 29.4005 44.3708C29.6291 43.9998 31.4345 43.6915 33.4125 43.6853C42.1175 43.6561 52.2129 39.9512 54.6975 35.8748C56.7536 32.5006 56.5015 31.7997 53.6583 32.9884C50.5115 34.3042 41.3173 34.2869 34.3499 32.9533C27.5845 31.6576 19.2142 31.6999 15.41 33.0489Z" fill="#C3093D"/>
</g>
<path d="M98.4382 15.4078H101.91V22.7235H109.458V15.4078H112.93V32.6019H109.458V25.4377H101.91V32.6019H98.4382V15.4078ZM120.793 32.8699C119.597 32.8699 118.649 32.5243 117.95 31.8331C117.259 31.1419 116.914 30.2682 116.914 29.212V20.0908H120.082V28.6995C120.082 29.1344 120.191 29.4838 120.408 29.7479C120.626 30.0042 120.898 30.1906 121.224 30.3071C121.55 30.4235 121.876 30.4818 122.202 30.4818C122.591 30.4818 122.975 30.4158 123.356 30.2838C123.736 30.1517 124.051 29.942 124.299 29.6547C124.556 29.3674 124.684 28.9907 124.684 28.5247V20.0908H127.852V32.6019H124.87L124.777 31.2273C124.528 31.7477 124.02 32.1515 123.251 32.4388C122.482 32.7262 121.663 32.8699 120.793 32.8699ZM118.591 14.6157H121.667V17.3299H118.591V14.6157ZM123.356 14.6157H126.443V17.3299H123.356V14.6157ZM131.592 20.0908H134.76V21.1974C135.242 20.7858 135.774 20.4519 136.356 20.1956C136.939 19.9393 137.684 19.8112 138.593 19.8112C139.532 19.8112 140.293 19.9859 140.876 20.3354C141.458 20.6771 141.886 21.1353 142.157 21.71C142.429 22.2847 142.565 22.9254 142.565 23.6321V32.6019H139.397V23.8068C139.397 23.3642 139.28 23.0263 139.047 22.7934C138.822 22.5604 138.538 22.4012 138.197 22.3158C137.863 22.2303 137.529 22.1876 137.195 22.1876C136.814 22.1876 136.438 22.2575 136.065 22.3973C135.692 22.5371 135.381 22.7429 135.133 23.0147C134.884 23.2865 134.76 23.6282 134.76 24.0398V32.6019H131.592V20.0908ZM149.263 32.8699C148.192 32.8699 147.318 32.5592 146.642 31.9379C145.974 31.3166 145.64 30.4896 145.64 29.4567C145.64 28.8664 145.761 28.3422 146.002 27.884C146.242 27.4258 146.681 27.0026 147.318 26.6143C147.955 26.2182 148.867 25.8338 150.055 25.461C151.026 25.1504 151.741 24.863 152.199 24.599C152.665 24.3349 152.898 23.9855 152.898 23.5506C152.898 23.0458 152.746 22.6691 152.444 22.4206C152.148 22.1643 151.644 22.0362 150.929 22.0362C150.137 22.0362 149.613 22.1915 149.357 22.5021C149.108 22.8128 148.984 23.2088 148.984 23.6903V24.1796H146.013V23.8068C146.013 22.5953 146.417 21.6285 147.225 20.9062C148.032 20.184 149.291 19.8228 150.999 19.8228C152.249 19.8228 153.24 19.9976 153.97 20.347C154.7 20.6965 155.224 21.1897 155.542 21.8265C155.861 22.4555 156.02 23.2011 156.02 24.0631V29.014C156.02 29.5809 156.09 29.9537 156.23 30.1323C156.377 30.3032 156.645 30.3886 157.033 30.3886L156.905 32.6951H156.241C155.371 32.6951 154.696 32.5747 154.214 32.334C153.733 32.0933 153.379 31.7205 153.154 31.2157C152.82 31.6583 152.315 32.0467 151.64 32.3806C150.972 32.7068 150.18 32.8699 149.263 32.8699ZM150.323 30.7614C150.712 30.7614 151.166 30.6526 151.686 30.4352C152.207 30.2177 152.611 29.8838 152.898 29.4334V26.2648C152.688 26.4357 152.354 26.6259 151.896 26.8356C151.438 27.0375 150.945 27.2356 150.417 27.4297C149.725 27.686 149.271 27.9695 149.054 28.2801C148.836 28.5907 148.727 28.9247 148.727 29.2819C148.727 29.7867 148.875 30.1595 149.17 30.4002C149.465 30.641 149.85 30.7614 150.323 30.7614ZM147.073 14.6157H150.149V17.3299H147.073V14.6157ZM151.838 14.6157H154.925V17.3299H151.838V14.6157ZM159.876 20.0908H163.044V21.5819C163.231 21.2557 163.557 20.9683 164.023 20.7198C164.496 20.4635 165.036 20.2655 165.642 20.1257C166.248 19.9782 166.854 19.9044 167.459 19.9044L167.389 22.5953C166.986 22.6186 166.547 22.6691 166.073 22.7468C165.599 22.8244 165.141 22.9293 164.698 23.0613C164.264 23.1933 163.895 23.3564 163.592 23.5506C163.289 23.7447 163.106 23.966 163.044 24.2146V32.6019H159.876V20.0908ZM169.614 28.4898V14.9535H172.783V28.4432C172.783 29.1266 172.942 29.6236 173.261 29.9343C173.587 30.2372 174.173 30.3886 175.02 30.3886H175.416L175.171 32.7417H173.843C172.453 32.7417 171.401 32.4272 170.686 31.7981C169.972 31.1613 169.614 30.0585 169.614 28.4898ZM177.396 20.0908H180.553V32.6019H177.396V20.0908ZM177.373 14.9535H180.565V18.0405H177.373V14.9535Z" fill="#F87E0D"/>
<path d="M97.9489 57.2452V52.9466C97.9489 51.7817 98.3489 50.8381 99.1488 50.1159C99.9487 49.3859 101.234 49.0209 103.005 49.0209C104.698 49.0209 105.944 49.3548 106.744 50.0227C107.544 50.6828 107.944 51.5992 107.944 52.7719V55.7075H100.139V57.4432C100.139 58.445 100.337 59.1517 100.733 59.5633C101.137 59.9749 101.921 60.1807 103.086 60.1807C103.777 60.1807 104.321 60.1574 104.717 60.1108C105.121 60.0565 105.416 59.9012 105.602 59.6449C105.797 59.3808 105.925 58.9382 105.987 58.3169H107.921C107.82 59.2876 107.606 60.0293 107.28 60.5419C106.961 61.0467 106.468 61.3922 105.8 61.5786C105.133 61.765 104.228 61.8582 103.086 61.8582C101.246 61.8582 99.9293 61.4738 99.1371 60.7049C98.345 59.9361 97.9489 58.7828 97.9489 57.2452ZM105.824 54.228V52.5389C105.824 51.7934 105.564 51.3002 105.043 51.0595C104.531 50.8187 103.851 50.6983 103.005 50.6983C102.135 50.6983 101.44 50.8498 100.919 51.1527C100.399 51.4555 100.139 51.9875 100.139 52.7486V54.228H105.824ZM111.695 57.4315V44.07H113.885V57.4548C113.885 58.1227 113.947 58.6314 114.071 58.9809C114.196 59.3226 114.421 59.5556 114.747 59.6798C115.073 59.7963 115.543 59.8546 116.157 59.8546H116.541L116.285 61.6951H115.656C114.755 61.6951 114.009 61.5903 113.419 61.3806C112.837 61.1709 112.402 60.7593 112.114 60.1458C111.835 59.5323 111.695 58.6275 111.695 57.4315ZM119.803 57.4315V44.07H121.993V57.4548C121.993 58.1227 122.055 58.6314 122.179 58.9809C122.303 59.3226 122.529 59.5556 122.855 59.6798C123.181 59.7963 123.651 59.8546 124.264 59.8546H124.649L124.392 61.6951H123.763C122.863 61.6951 122.117 61.5903 121.527 61.3806C120.944 61.1709 120.509 60.7593 120.222 60.1458C119.942 59.5323 119.803 58.6275 119.803 57.4315ZM127.421 57.2452V52.9466C127.421 51.7817 127.821 50.8381 128.621 50.1159C129.421 49.3859 130.706 49.0209 132.477 49.0209C134.17 49.0209 135.416 49.3548 136.216 50.0227C137.016 50.6828 137.416 51.5992 137.416 52.7719V55.7075H129.611V57.4432C129.611 58.445 129.809 59.1517 130.205 59.5633C130.609 59.9749 131.394 60.1807 132.558 60.1807C133.25 60.1807 133.793 60.1574 134.189 60.1108C134.593 60.0565 134.888 59.9012 135.075 59.6449C135.269 59.3808 135.397 58.9382 135.459 58.3169H137.393C137.292 59.2876 137.078 60.0293 136.752 60.5419C136.434 61.0467 135.941 61.3922 135.273 61.5786C134.605 61.765 133.7 61.8582 132.558 61.8582C130.718 61.8582 129.402 61.4738 128.609 60.7049C127.817 59.9361 127.421 58.7828 127.421 57.2452ZM135.296 54.228V52.5389C135.296 51.7934 135.036 51.3002 134.516 51.0595C134.003 50.8187 133.323 50.6983 132.477 50.6983C131.607 50.6983 130.912 50.8498 130.392 51.1527C129.871 51.4555 129.611 51.9875 129.611 52.7486V54.228H135.296ZM141.121 49.2539H143.311V51.0012C143.489 50.5353 143.812 50.1625 144.278 49.8829C144.751 49.5956 145.287 49.3898 145.885 49.2655C146.483 49.1412 147.054 49.0791 147.598 49.0791L147.528 50.9546C146.829 50.9546 146.157 51.0517 145.512 51.2459C144.868 51.4322 144.34 51.6769 143.928 51.9798C143.516 52.2826 143.311 52.6088 143.311 52.9583V61.6019H141.121V49.2539Z" fill="#C3093D"/>
<defs>
<clipPath id="clip0_2_1978">
<rect width="94.2368" height="66.6019" fill="white"/>
</clipPath>
</defs>
</svg>
