<svg width="183" height="67" viewBox="0 0 183 67" fill="none" xmlns="http://www.w3.org/2000/svg">
<g clip-path="url(#clip0_2_374)">
<path fill-rule="evenodd" clip-rule="evenodd" d="M15.41 33.049C7.60419 35.8161 1.79713 45.0433 0.379655 56.9315L0 60.1158L3.2631 58.4343C7.63537 56.1807 10.8784 56.5476 26.6597 61.0834C51.058 68.0961 60.3312 68.3518 69.6016 62.2702C71.4895 61.0316 78.0988 54.8644 84.2884 48.5651C96.3134 36.3268 96.7734 35.3266 89.2217 37.8366C86.4 38.7744 84.059 40.5697 77.4843 46.8392C70.9458 53.0741 68.4849 54.965 65.4117 56.1149C58.2079 58.812 48.8176 57.7293 41.0242 53.3041C35.4957 50.1643 28.9357 45.123 29.4005 44.3709C29.6291 44.0001 31.4345 43.6916 33.4125 43.6854C42.1175 43.6562 52.2129 39.9513 54.6975 35.8749C56.7536 32.5007 56.5015 31.7999 53.6583 32.9886C50.5115 34.3043 41.3173 34.287 34.3499 32.9534C27.5845 31.6577 19.2142 31.7001 15.41 33.049ZM80.7502 35.7015C77.5266 36.8517 75.1538 39.0122 70.0644 45.43C67.9487 48.0987 64.7894 51.6482 63.0442 53.3189C60.4123 55.8376 60.1664 56.2682 61.6032 55.844C65.1685 54.7911 69.8096 51.1361 77.873 43.0309C86.3771 34.4838 86.7374 33.5661 80.7502 35.7015ZM70.4503 37.8123C69.0322 38.7764 66.6469 41.3695 65.1504 43.5745C63.654 45.7787 60.5113 49.3595 58.167 51.5317C55.8218 53.7036 54.0871 55.4807 54.3116 55.4807C56.0504 55.4807 60.2648 52.7954 63.7903 49.4406C68.1405 45.3012 73.6448 37.9052 73.2528 36.7274C73.1301 36.3594 71.8693 36.8481 70.4503 37.8123Z" fill="white"/>
<path d="M79.5248 27.9331C79.5248 12.5061 67.0187 0 51.5917 0C36.1647 0 23.6587 12.5061 23.6587 27.9331V28.1319C23.6587 43.5589 36.1647 56.0649 51.5917 56.0649C67.0187 56.0649 79.5248 43.5589 79.5248 28.1319V27.9331Z" fill="white"/>
<path fill-rule="evenodd" clip-rule="evenodd" d="M48.2762 4.28426C47.1698 4.73168 46.609 6.32397 47.1802 7.39515C47.9708 8.87739 50.4699 8.72514 51.1846 7.15152C51.6447 6.13879 51.587 5.75473 50.8536 4.94141C49.9637 3.9552 49.4281 3.81866 48.2762 4.28426ZM56.072 5.23659C54.6853 5.93006 53.0879 7.15005 52.5214 7.94766L51.4926 9.39752L53.8378 7.90544C55.1279 7.08424 56.68 6.41286 57.2866 6.41286C58.5035 6.41286 60.4381 8.67553 61.2753 11.0787C61.6463 12.144 61.7986 12.28 61.8246 11.5698C61.8863 9.89455 60.9499 7.18001 59.7455 5.54256L58.5937 3.97632L56.072 5.23659ZM52.8099 5.43059C52.3228 5.97084 52.1441 6.41286 52.4133 6.41286C52.6825 6.41286 53.3018 5.97084 53.7889 5.43059C54.276 4.89034 54.4547 4.4483 54.1855 4.4483C53.9161 4.4483 53.297 4.89034 52.8099 5.43059ZM44.4588 6.18301C45.696 7.12158 46.4929 7.11174 45.7115 6.16728C45.3763 5.76211 44.7437 5.43747 44.3057 5.44629C43.6359 5.45955 43.6604 5.57693 44.4588 6.18301ZM39.5999 6.40059C38.8058 7.68982 37.9966 12.4102 38.3609 13.6277L38.774 15.0078L38.816 13.6414C38.867 11.9863 40.1398 8.80078 40.9578 8.28018C41.7214 7.79344 44.5652 8.29932 46.4459 9.25557C47.8239 9.95642 47.8714 9.95053 47.2159 9.15783C45.8785 7.54002 40.1707 5.47429 39.5999 6.40059ZM61.8735 7.24337C61.8779 7.46193 62.0948 7.97222 62.3557 8.37741C62.7644 9.01246 62.831 8.9992 62.838 8.28361C62.8418 7.82684 62.625 7.31656 62.3557 7.14957C62.0865 6.98257 61.8696 7.02482 61.8735 7.24337ZM54.1467 8.38036C51.4993 9.99522 51.4588 13.5344 54.0871 13.5344C54.9652 13.5344 55.298 13.2279 55.4215 12.3065C55.5537 11.3139 55.4646 11.1965 54.9565 11.6926C53.9334 12.6911 52.969 12.4303 53.1427 11.2015C53.2411 10.5095 53.6924 10.0399 54.3509 9.94612C54.9384 9.86212 55.5239 9.32972 55.6776 8.73939C56.0499 7.31115 55.9408 7.28562 54.1467 8.38036ZM56.6056 8.54539C55.9501 9.98835 56.6766 11.5281 57.453 10.342C58.0434 9.43925 58.1031 7.39515 57.5392 7.39515C57.313 7.39515 56.8931 7.91279 56.6056 8.54539ZM58.7786 9.39161C58.5882 10.1234 58.7625 10.8685 59.2516 11.4107C59.6781 11.8832 59.8968 12.6096 59.7381 13.0251C59.3665 13.996 57.95 14.0103 57.95 13.0432C57.95 12.2324 57.1877 12.0482 56.7535 12.7535C56.3016 13.4872 56.9919 14.7028 58.0528 15.0407C59.6647 15.5539 61.0845 13.7618 60.6992 11.701C60.5264 10.7771 60.0916 9.61901 59.7333 9.12689C59.117 8.28165 59.0641 8.29638 58.7786 9.39161ZM63.9334 9.14212C63.3348 9.56253 62.8453 10.3233 62.8453 10.8331C62.8453 11.6867 64.5132 13.2888 65.4021 13.2888C65.9528 13.2888 67.7405 11.4117 67.7405 10.8331C67.7405 10.2546 65.9528 8.37741 65.4021 8.37741C65.1925 8.37741 64.5317 8.7217 63.9334 9.14212ZM41.3059 9.92204C41.3059 11.1037 42.0959 12.3065 42.8723 12.3065C43.6433 12.3065 43.2453 10.4775 42.2848 9.60526C41.3313 8.73939 41.3059 8.74724 41.3059 9.92204ZM43.7183 9.78452C44.06 10.4255 44.7527 10.8331 45.4996 10.8331C46.8497 10.8331 47.611 12.0708 46.7764 12.9082C46.3911 13.2947 46.0328 13.2687 45.4875 12.8149C44.8495 12.2839 44.7326 12.3399 44.7326 13.1763C44.7326 14.3988 45.9559 14.9287 47.2154 14.2519C49.3003 13.1326 47.6086 9.84395 44.5572 9.08417C43.2459 8.75707 43.1934 8.80078 43.7183 9.78452ZM36.6396 10.3916C36.4598 10.9588 36.5555 11.6661 36.8515 11.9632C37.2428 12.3556 37.3895 12.0737 37.3895 10.9313C37.3895 9.11707 37.1072 8.91373 36.6396 10.3916ZM49.3568 10.4795C48.9323 11.5895 49.5212 13.9042 50.1315 13.5255C50.7323 13.1533 50.7351 11.3056 50.1361 10.3557C49.7458 9.73639 49.6343 9.75456 49.3568 10.4795ZM39.5681 12.5094C38.9786 15.6615 40.6695 17.8569 42.8043 16.711C43.9131 16.1153 43.9523 14.249 42.8636 13.889C42.4572 13.7549 42.2755 14.0064 42.3739 14.5697C42.5781 15.7411 40.922 16.1016 40.4927 14.9788C40.3164 14.5181 40.4237 13.7367 40.7311 13.2431C41.3049 12.3213 41.0365 10.8331 40.2963 10.8331C40.0683 10.8331 39.7402 11.5875 39.5681 12.5094ZM32.7733 13.389C32.1295 14.3109 32.1158 14.6198 32.6816 15.4763C33.0468 16.0289 33.721 16.5559 34.1803 16.6472C35.2091 16.8515 36.9 15.3879 36.9 14.2932C36.9 12.2245 34.026 11.5949 32.7733 13.389ZM67.9854 13.2888C69.3453 13.8752 70.3048 13.8752 69.9435 13.2888C69.7771 13.0187 69.0481 12.8134 68.3236 12.8321C67.1472 12.863 67.111 12.9121 67.9854 13.2888ZM61.3767 14.7622C60.3407 15.8015 60.0936 16.7268 60.8524 16.7268C61.5505 16.7268 62.8453 15.2681 62.8453 14.4818C62.8453 13.5383 62.5384 13.5967 61.3767 14.7622ZM65.0863 14.7003C64.8577 15.0711 65.3277 15.2534 66.5124 15.2534C68.4665 15.2534 70.9087 16.325 71.3034 17.3559C71.6465 18.2542 71.0024 21.5968 70.1936 23.1116C69.5743 24.2722 69.5876 24.2991 70.4306 23.6026C71.6543 22.5919 73.1014 19.2576 73.1146 17.4198C73.1229 16.2356 72.8293 15.7666 71.7791 15.2853C69.8485 14.4007 65.5048 14.0211 65.0863 14.7003ZM49.6279 15.0323C49.6279 15.1807 49.9504 15.9282 50.3445 16.6929C51.3966 18.7336 53.827 19.0111 55.6468 17.2975C56.9136 16.1045 56.9522 15.9631 56.1651 15.386C55.3485 14.7868 49.6279 14.4774 49.6279 15.0323ZM45.1873 16.2238C44.2254 16.7341 43.1636 17.4841 42.8274 17.8908C42.3146 18.5106 42.4669 18.7606 43.7691 19.4364C46.4772 20.8415 48.6488 19.1712 48.6488 15.6831C48.6488 14.9827 47.0593 15.2313 45.1873 16.2238ZM63.4326 16.3339C62.0654 17.7056 63.3569 20.6381 65.0418 19.9894C66.0398 19.6053 65.9885 18.292 64.9786 18.3775C64.536 18.4153 64.0774 18.1697 63.9585 17.8323C63.6408 16.9272 65.2742 16.4788 66.3752 17.1688C67.1041 17.6256 67.49 17.6305 68.0182 17.1904C68.3979 16.8741 68.588 16.4193 68.4407 16.1801C68.0417 15.5323 64.1112 15.6531 63.4326 16.3339ZM49.1383 17.4483C49.1383 18.3176 49.3434 18.5813 49.8637 18.3814C50.4126 18.1697 50.4679 17.875 50.0914 17.1688C49.4208 15.912 49.1383 15.9945 49.1383 17.4483ZM57.3458 18.0774C57.1687 19.5484 57.3546 20.1367 58.2691 20.9992C59.2462 21.9201 59.7206 22.0237 61.497 21.703L63.5795 21.3268L61.0795 18.7812C59.7043 17.381 58.3518 16.2356 58.0733 16.2356C57.7953 16.2356 57.4677 17.0647 57.3458 18.0774ZM31.148 17.0519C30.146 17.4576 30.4543 18.1295 31.5152 17.8515C32.0536 17.71 32.4941 17.3991 32.4941 17.1604C32.4941 16.6924 32.1124 16.6614 31.148 17.0519ZM38.3686 17.9546C39.001 18.6299 39.7001 19.1825 39.9223 19.1825C40.714 19.1825 40.3106 17.7351 39.38 17.2351C37.6935 16.3299 37.1855 16.6909 38.3686 17.9546ZM55.6432 18.1565C55.1792 18.902 55.1949 19.1476 55.7195 19.3495C56.1342 19.5091 56.4653 19.1599 56.6076 18.4109C56.8804 16.9802 56.4466 16.8658 55.6432 18.1565ZM68.7584 17.8392C68.1063 18.1727 67.482 18.7223 67.3715 19.0597C67.0601 20.0065 68.9512 19.7915 69.8676 18.7753C71.2974 17.1904 70.8173 16.7852 68.7584 17.8392ZM32.8683 18.1982C31.08 18.7385 28.0885 20.6191 28.0885 21.2036C28.0885 22.234 30.5855 26.5289 31.5989 27.2407C32.949 28.1894 33.4067 27.8323 32.3468 26.6576C31.9096 26.1733 31.1999 24.9297 30.7686 23.8949C30.0098 22.0724 30.0205 21.9742 31.1172 20.7827C31.7398 20.1057 33.1305 19.153 34.2075 18.6653C36.2435 17.7429 35.3761 17.4404 32.8683 18.1982ZM33.9628 19.4978C32.312 20.2375 32.2886 20.2837 33.3236 20.7688C34.1508 21.1568 34.5801 21.089 35.194 20.4731C36.206 19.458 37.1996 19.4506 37.5839 20.456C37.7837 20.9775 37.5565 21.3238 36.902 21.4952C35.7413 21.7998 35.6189 22.535 36.6616 22.9362C37.6123 23.3026 38.8581 22.2692 38.8581 21.1147C38.8581 20.2226 37.1326 18.6741 36.1789 18.7105C35.9024 18.7213 34.9051 19.0754 33.9628 19.4978ZM40.4198 20.8656C39.4088 22.3459 38.1969 25.5585 38.5253 25.888C38.602 25.9651 39.4637 25.8983 40.4398 25.7392C42.7317 25.3659 43.7149 23.4245 42.7699 21.1368C41.9152 19.0656 41.6685 19.0376 40.4198 20.8656ZM52.498 20.3385C53.2495 21.1411 53.9495 21.424 54.7861 21.264C55.4493 21.1368 55.9917 20.8729 55.9917 20.6775C55.9917 20.1628 53.6739 19.1825 52.4568 19.1825H51.4151L52.498 20.3385ZM69.5763 19.8832C69.1049 20.233 68.7196 21.0783 68.7196 21.7624C68.7196 23.17 67.584 23.8601 66.809 22.9235C66.4502 22.4893 66.4522 22.1449 66.8158 21.7801C67.1609 21.4338 67.1703 21.1548 66.8438 20.9525C66.3313 20.6348 64.8034 21.8843 64.8034 22.6205C64.8034 23.199 66.2323 24.5849 66.8285 24.5849C68.4632 24.5849 70.9441 21.5036 70.5847 19.9192C70.4598 19.3666 70.2823 19.3603 69.5763 19.8832ZM43.2512 20.6324C43.5546 21.2006 44.0119 21.536 44.2676 21.3773C44.9431 20.9584 44.8521 20.7546 43.7163 20.1447C42.7836 19.6441 42.7455 19.6844 43.2512 20.6324ZM46.9766 20.6244L45.5485 21.5684L47.2213 22.2702C48.1412 22.6563 48.917 22.9479 48.9454 22.9191C48.9744 22.8897 49.1339 22.1479 49.3003 21.2698C49.6578 19.3878 49.086 19.2291 46.9766 20.6244ZM49.8623 21.2747C49.3405 24.0659 51.0304 27.0357 52.0511 25.1223C52.8069 23.7054 52.6771 21.3298 51.796 20.4451C50.653 19.2989 50.1951 19.4953 49.8623 21.2747ZM73.148 21.1047C72.8474 21.6686 72.8058 22.1292 73.0559 22.1292C73.5591 22.1292 74.2534 20.6417 73.9112 20.2978C73.7917 20.1785 73.4486 20.5415 73.148 21.1047ZM31.9367 22.6366C33.256 23.7392 33.7635 23.832 34.2413 23.0565C34.6775 22.3483 33.559 21.6509 32.0047 21.6622L30.7808 21.6712L31.9367 22.6366ZM54.0728 22.3272C53.7594 22.7064 53.3042 23.7122 53.061 24.5629C52.7061 25.8035 52.7741 26.1695 53.4026 26.4116C54.373 26.7854 56.9708 24.0191 56.9708 22.6125C56.9708 21.4447 54.9666 21.2473 54.0728 22.3272ZM57.3371 23.8006L56.5444 25.4671L58.2265 25.6641C60.1387 25.888 60.3011 25.4386 59.0152 23.4823L58.1291 22.1338L57.3371 23.8006ZM62.2636 23.4706C60.4769 25.3816 60.8377 27.5834 63.1169 28.6737C64.2026 29.1928 64.8734 29.2886 65.08 28.9536C65.5015 28.2695 64.9042 24.612 64.1454 23.2251L63.5354 22.1111L62.2636 23.4706ZM45.2221 23.837C45.2221 25.1528 46.5507 26.2671 48.7713 26.8152C50.6202 27.2711 50.5794 25.9554 48.6866 24.0561C46.8708 22.2344 45.2221 22.1298 45.2221 23.837ZM59.9081 23.0825C59.9081 23.9332 60.7695 24.0909 61.3811 23.3517C61.8849 22.7432 61.8119 22.6205 60.9469 22.6205C60.3755 22.6205 59.9081 22.8282 59.9081 23.0825ZM72.0241 23.642C70.2813 24.6601 71.275 27.5317 73.3702 27.5317C75.4317 27.5317 76.2824 25.3669 74.8041 23.8831C73.919 22.9956 73.2327 22.9358 72.0241 23.642ZM43.2624 25.3261C42.5194 27.5848 42.7763 28.1473 44.0692 27.0894C44.8294 26.4671 45.0503 25.8683 44.8686 24.9166C44.5264 23.1189 43.9389 23.2688 43.2624 25.3261ZM31.5152 24.4754C31.5152 25.3094 33.1496 27.1281 34.2888 27.5627C35.6751 28.0918 37.1032 27.516 37.5947 26.2303C38.0151 25.1317 36.7386 23.8625 35.6389 24.2859C34.8367 24.5949 34.8371 24.6454 35.6453 25.2382C36.4223 25.8084 36.429 25.9229 35.7203 26.5126C34.7608 27.3118 33.4733 26.4542 33.4733 25.0162C33.4733 24.4215 33.1258 24.0939 32.4941 24.0939C31.9558 24.0939 31.5152 24.2657 31.5152 24.4754ZM28.5779 25.6985C28.5779 26.4337 29.9056 27.8383 30.2609 27.4792C30.3657 27.3733 30.0305 26.7647 29.5149 26.1267C28.8766 25.3369 28.5779 25.2005 28.5779 25.6985ZM66.2721 26.0295C66.2721 26.8015 67.2403 27.1498 68.5027 26.8319C70.2827 26.384 69.9483 25.5673 67.9854 25.5673C67.043 25.5673 66.2721 25.775 66.2721 26.0295ZM40.6072 26.5293C39.711 26.852 39.7084 26.886 40.555 27.212C41.5275 27.5864 41.9955 27.36 41.7238 26.6462C41.6283 26.3953 41.1261 26.3428 40.6072 26.5293ZM55.135 26.5422C54.5296 26.7991 54.0336 27.3413 54.0336 27.7474C54.0336 28.7328 56.8945 29.4797 58.2902 28.8588C59.3059 28.4071 60.1616 27.1311 59.7353 26.7037C59.2604 26.2273 56.1362 26.1174 55.135 26.5422ZM44.4427 27.6552C43.2115 28.627 43.189 28.7178 44.03 29.3348C45.126 30.1388 46.7362 30.1692 48.381 29.4173C50.327 28.5278 49.9832 27.8471 47.1808 27.0407C46.0483 26.715 45.4692 26.8446 44.4427 27.6552ZM50.3558 27.5524C49.9544 28.8206 50.6476 29.655 51.9013 29.4129C52.496 29.298 52.8099 28.8153 52.8099 28.016C52.8099 26.3727 50.8462 26.0015 50.3558 27.5524ZM38.3716 28.6473C38.3744 30.6014 39.2575 33.9166 39.775 33.9166C39.9846 33.9166 40.6351 33.4048 41.2206 32.7802C43.0407 30.8362 42.4435 28.7956 39.7148 27.6345C38.4064 27.0775 38.3686 27.1061 38.3716 28.6473ZM66.5255 28.821C65.4178 29.9326 65.7619 31.6686 67.1287 31.8636C67.7341 31.9495 68.2302 31.7841 68.2302 31.4952C68.2302 31.206 68.0099 30.9698 67.7405 30.9698C67.0939 30.9698 67.11 29.6417 67.7621 29.2375C68.4779 28.7936 69.6988 29.9236 69.6988 31.0296C69.6988 31.537 69.901 31.9521 70.1481 31.9521C70.3952 31.9521 70.9461 32.0861 71.372 32.2501C72.6903 32.7575 72.236 31.4525 70.4819 29.6928C68.6335 27.8383 67.7083 27.6345 66.5255 28.821ZM70.7409 28.8107C71.9177 30.1839 73.1255 32.7452 73.1255 33.8671C73.1255 34.9583 70.734 36.9518 68.4749 37.7441L67.0063 38.2592L68.3681 38.298C69.9536 38.3433 72.6863 37.2815 74.3371 35.9785L75.4914 35.0673L74.5265 32.9048C73.4486 30.4895 72.3921 29.1664 70.9278 28.3972C69.9988 27.9091 69.988 27.9321 70.7409 28.8107ZM28.368 29.2857C27.4662 30.1908 27.4173 30.6938 28.1056 31.9845C29.0871 33.8247 32.0047 32.8818 32.0047 30.7243C32.0047 28.656 29.8468 27.8025 28.368 29.2857ZM59.0792 29.3952C58.1218 30.1427 58.0752 30.3612 58.651 31.4207L59.2961 32.6082L59.8777 31.5179C60.1974 30.9187 60.3902 30.0071 60.3061 29.493C60.1602 28.6039 60.0995 28.5992 59.0792 29.3952ZM61.3767 29.297C61.3767 29.6767 61.8173 29.9875 62.3557 29.9875C62.8942 29.9875 63.3348 29.792 63.3348 29.5538C63.3348 29.3151 62.8942 29.0043 62.3557 28.8628C61.7193 28.6958 61.3767 28.8481 61.3767 29.297ZM73.6003 29.469C74.2015 30.5956 75.0836 31.234 75.0836 30.5425C75.0836 30.0553 73.7422 28.5141 73.3177 28.5141C73.1929 28.5141 73.3203 28.9439 73.6003 29.469ZM34.8194 29.3387C33.328 29.7385 33.8948 30.5475 35.5538 30.3869C36.429 30.3024 37.1012 30.0121 37.0483 29.7419C36.9362 29.1721 36.0423 29.0107 34.8194 29.3387ZM53.3034 29.49C52.8646 30.2016 54.5384 32.2905 56.217 33.1259C57.7742 33.9015 58.4395 33.7699 58.4395 32.6873C58.4395 30.8932 54.1022 28.1934 53.3034 29.49ZM48.5265 30.0278C47.6561 30.5356 46.2012 32.9529 46.2012 33.8921C46.2012 34.6351 48.919 34.5281 49.554 33.7605C50.2608 32.9058 50.4967 29.8928 49.8727 29.6884C49.6035 29.6 48.9973 29.7527 48.5265 30.0278ZM43.264 30.6245C43.264 31.2591 44.8839 33.9166 45.2706 33.9166C45.4501 33.9166 45.7082 33.5301 45.8437 33.0571C45.9793 32.5841 46.2388 31.8366 46.4209 31.3956C46.6833 30.7586 46.3921 30.5513 45.0077 30.3889C44.0487 30.2767 43.264 30.3823 43.264 30.6245ZM50.9152 31.5837C50.3876 33.5605 50.5884 34.7295 51.6159 35.6625C52.4795 36.4471 52.6898 36.4755 53.0771 35.8616C53.3258 35.4671 53.5324 34.5222 53.5368 33.7615C53.5519 30.9408 51.5351 29.2646 50.9152 31.5837ZM61.3091 30.9787C60.0775 31.7 59.7832 33.7235 60.6624 35.4289C61.3312 36.727 61.5445 36.8439 62.2171 36.2844C62.9656 35.6617 63.8189 33.9299 64.5332 31.5837C64.8269 30.6177 64.6961 30.4807 63.4899 30.4934C62.7316 30.5018 61.7501 30.7199 61.3091 30.9787ZM34.3393 32.7885C33.1409 34.117 32.3703 36.3743 33.1184 36.3649C34.1077 36.3522 35.0888 35.5349 34.7584 34.9981C34.2389 34.1553 34.9894 32.9344 36.0262 32.9344C36.827 32.9344 36.9499 33.1589 36.6988 34.1621C36.3791 35.4407 36.6891 35.6651 37.7992 34.9587C38.1597 34.7295 38.38 34.0148 38.2889 33.37C38.0734 31.8406 35.5314 31.4668 34.3393 32.7885ZM31.5347 34.613C30.9585 35.8065 30.3643 37.5457 30.2136 38.4779C29.9458 40.134 29.9923 40.1905 32.2832 40.9738C34.89 41.8647 38.3686 42.042 38.3686 41.2837C38.3686 41.0136 37.7151 40.7925 36.9167 40.7925C36.1183 40.7925 34.6864 40.4203 33.7347 39.965C32.2631 39.2606 32.0047 38.8914 32.0047 37.4936C32.0047 36.5894 32.324 35.083 32.714 34.1464C33.7455 31.6696 32.7683 32.0567 31.5347 34.613ZM41.7953 33.18C41.2862 33.7953 41.3568 33.9166 42.2252 33.9166C42.8224 33.9166 43.264 33.6032 43.264 33.18C43.264 32.7748 43.0705 32.4432 42.8341 32.4432C42.5981 32.4432 42.1307 32.7748 41.7953 33.18ZM54.3157 33.3062C54.1604 33.4619 54.0336 34.2152 54.0336 34.981C54.0336 36.5958 54.8923 36.7858 56.4362 35.5128L57.4784 34.6534L56.0382 33.838C55.2462 33.3901 54.4708 33.1506 54.3157 33.3062ZM65.1048 33.6844C64.075 34.7176 64.1048 35.5393 65.2092 36.5417C66.344 37.5721 67.8556 37.5741 69.8348 36.5473L71.3905 35.7403L70.2278 35.3085C69.3765 34.9927 68.8274 35.0933 68.1763 35.6842C67.6878 36.1282 66.949 36.361 66.5349 36.2019C65.545 35.8208 65.5627 34.4078 66.5573 34.4078C66.9838 34.4078 67.2456 34.1454 67.1389 33.8247C66.8281 32.8887 65.9581 32.8283 65.1048 33.6844ZM69.2091 33.671C69.8642 34.4627 72.1463 34.6945 72.1463 33.9693C72.1463 33.4279 70.9314 32.9344 69.5988 32.9344C68.7661 32.9344 68.7015 33.0571 69.2091 33.671ZM29.914 34.2132C29.7175 34.4102 29.5571 34.9102 29.5571 35.3248C29.5571 35.8773 29.702 35.9323 30.1014 35.5309C30.401 35.2309 30.5621 34.7305 30.4587 34.42C30.3555 34.1092 30.1102 34.0164 29.914 34.2132ZM41.0947 34.8484C40.2357 35.1858 40.341 35.4273 42.259 37.5147C43.4186 38.7775 44.6449 39.8103 44.9841 39.8103C45.3229 39.8103 45.7115 39.0918 45.8471 38.2141C46.2766 35.4333 43.8964 33.7472 41.0947 34.8484ZM48.3977 35.1926L46.9354 35.7987L48.3716 36.3532C49.1619 36.6586 50.1924 36.8429 50.6608 36.7628C51.4632 36.6268 51.4646 36.5574 50.6868 35.6017C49.9514 34.6991 49.6969 34.6534 48.3977 35.1926ZM58.6504 34.954C58.4653 35.254 58.6176 35.6926 58.9888 35.9284C60.1059 36.6385 60.4628 36.4298 59.9081 35.39C59.3065 34.2619 59.117 34.1961 58.6504 34.954ZM37.977 36.4705C37.1487 37.3015 37.2465 38.0059 38.1424 37.661C39.1201 37.2844 39.7164 38.7867 38.8116 39.3477C38.3971 39.605 37.74 39.5101 37.1213 39.103C36.3972 38.6272 35.8562 38.5795 35.2218 38.936C34.5033 39.3394 34.4622 39.5147 35.0055 39.8605C36.2067 40.6237 39.1474 40.3549 40.006 39.4032C41.0174 38.2819 41.0273 37.6365 40.0472 36.6528C39.1239 35.7266 38.7509 35.6942 37.977 36.4705ZM56.4104 36.6512C55.5273 37.1155 55.0231 37.8821 54.7935 39.1095C54.6104 40.0903 54.5662 40.9992 54.6954 41.1295C54.9913 41.4257 58.8522 39.636 60.117 38.6163C61.1833 37.7568 61.1819 37.7544 59.1679 36.7284C57.9005 36.0826 57.5132 36.0717 56.4104 36.6512ZM33.7622 37.3059C33.2989 37.8193 33.0997 38.3457 33.319 38.4759C34.02 38.8918 35.9209 37.9051 35.9209 37.1248C35.9209 36.086 34.7759 36.1818 33.7622 37.3059ZM46.6907 37.9057C46.6907 38.7769 46.8116 38.8477 47.4249 38.337C47.8347 37.996 48.1593 37.9425 48.1593 38.2165C48.1593 38.4867 47.8289 38.9827 47.4249 39.3191C46.2036 40.3364 46.5678 40.6973 49.413 41.2901C53.2034 42.0794 53.7678 41.7875 52.7189 39.5805C51.9914 38.0495 51.6781 37.8457 50.0558 37.8457C49.0444 37.8457 48.081 37.6248 47.9146 37.3546C47.3911 36.5049 46.6907 36.8202 46.6907 37.9057ZM63.4215 37.6703C63.6104 38.635 65.1024 39.6738 65.5929 39.1821C65.9802 38.7932 64.4151 36.8636 63.7127 36.8636C63.4654 36.8636 63.3342 37.2264 63.4215 37.6703ZM53.0547 38.828C53.3429 39.3682 53.6811 39.8103 53.806 39.8103C53.9314 39.8103 54.0336 39.3682 54.0336 38.828C54.0336 38.2725 53.7071 37.8457 53.2823 37.8457C52.6825 37.8457 52.6366 38.0441 53.0547 38.828ZM71.1674 38.828C70.5344 39.2382 70.5475 39.305 71.2608 39.3117C71.7161 39.3157 72.2247 39.0982 72.3911 38.828C72.774 38.2063 72.1259 38.2063 71.1674 38.828ZM41.3979 40.2096C40.3043 41.3062 39.9977 42.2661 40.7404 42.2661C41.4478 42.2661 42.8856 40.3903 42.6715 39.7465C42.5331 39.329 42.1288 39.4757 41.3979 40.2096ZM60.0852 40.0559C59.7381 40.9621 60.1934 42.2661 60.8562 42.2661C61.1256 42.2661 61.2278 41.9571 61.0829 41.579C60.6968 40.569 61.8461 40.0706 62.6656 40.8927C63.3764 41.6058 63.1209 43.2482 62.2994 43.2482C62.0566 43.2482 62.133 43.6904 62.4694 44.2305C63.3368 45.6244 63.6692 45.4604 64.0446 43.453C64.4641 41.207 63.3455 39.3191 61.595 39.3191C60.9194 39.3191 60.2399 39.6507 60.0852 40.0559ZM67.6182 39.8495C66.3214 40.6074 66.484 43.1721 67.8629 43.7085C70.3067 44.6594 72.2189 41.5873 70.1069 40.1036C68.8121 39.1934 68.752 39.1871 67.6182 39.8495ZM43.5847 41.6909C43.1391 42.185 42.7745 43.1687 42.7745 43.8778C42.7745 45.3234 43.7103 47.6686 44.2876 47.6686C45.0899 47.6686 44.9312 45.4123 44.0682 44.5464C43.257 43.7325 43.2389 43.5542 43.8988 42.8921C44.7869 42.0009 45.7909 42.4689 45.3674 43.5764C45.1618 44.1136 45.2857 44.291 45.7561 44.1343C46.6794 43.8254 46.9124 42.3887 46.1815 41.5056C45.3901 40.5485 44.5616 40.6074 43.5847 41.6909ZM56.3462 41.8406C55.8523 42.1182 55.5022 42.9011 55.5022 43.7281C55.5022 45.3823 57.4496 47.1773 59.2437 47.1773C60.2834 47.1773 60.3413 47.0737 59.7946 46.1952C59.4582 45.6548 58.6784 45.2129 58.0615 45.2129C57.4448 45.2129 56.8078 44.8665 56.6458 44.4433C56.2845 43.4993 57.1911 42.4134 57.6788 43.2055C58.1536 43.9766 58.9289 43.8617 58.9289 43.02C58.9289 41.9772 57.3703 41.2661 56.3462 41.8406ZM64.6796 43.2482C64.4768 44.1938 63.8585 45.7119 63.3054 46.6218C62.3513 48.1911 62.1936 48.2595 60.2473 47.9475C59.1184 47.7668 57.7066 47.2986 57.1104 46.9067C55.6937 45.9765 55.2223 46.0015 56.0187 46.9642C56.9032 48.0334 58.9446 49.03 61.3713 49.5772L63.4269 50.0408L64.3873 47.8616C64.984 46.5085 65.2915 44.895 65.1979 43.6059L65.0482 41.5293L64.6796 43.2482ZM33.2162 42.7375C33.3896 43.0184 34.1053 43.2482 34.8077 43.2482C36.3419 43.2482 36.1648 43.013 34.2888 42.5611C33.3792 42.3416 33.0103 42.4025 33.2162 42.7375ZM48.1768 42.981C47.3603 43.9687 48.011 44.9653 48.9577 44.1771C49.4717 43.7492 49.8178 43.7335 50.2031 44.12C50.9745 44.8942 50.3166 46.1952 49.1536 46.1952C48.6066 46.1952 48.1593 46.398 48.1593 46.6459C48.1593 46.894 48.008 47.4926 47.8229 47.9765C47.5243 48.7569 47.7044 48.7318 49.414 47.7584L51.3413 46.6602L49.9932 47.8791C49.2514 48.5497 47.851 49.2475 46.8806 49.4303C45.3328 49.7215 44.973 49.5889 43.9409 48.3467C43.2948 47.5688 42.63 46.3242 42.464 45.5813C42.2981 44.8381 41.9657 44.2305 41.7248 44.2305C40.788 44.2305 43.0775 50.4233 44.431 51.5504C45.1173 52.1222 49.5132 50.2185 50.6333 48.8644C51.4498 47.8777 51.7357 43.7753 51.0461 42.9418C50.3166 42.0603 48.9229 42.0794 48.1768 42.981ZM53.0547 44.2015C53.0547 44.9962 53.2592 45.7727 53.5089 45.928C54.1062 46.2978 54.6308 44.593 54.2374 43.5631C53.741 42.2651 53.0547 42.6359 53.0547 44.2015ZM36.4159 43.9786C35.6018 44.9624 36.1789 47.0374 37.3724 47.4175C39.5464 48.1095 41.3214 45.425 39.7392 43.8377C38.9277 43.0233 37.1433 43.0989 36.4159 43.9786ZM60.1886 44.1727C59.7882 44.8224 61.1119 47.1773 61.8775 47.1773C62.6465 47.1773 62.4296 45.9043 61.4544 44.6961C60.8137 43.9025 60.4481 43.7512 60.1886 44.1727ZM66.1677 45.2129C66.0492 46.0232 66.1339 46.6863 66.3567 46.6863C66.5794 46.6863 66.7615 46.0232 66.7615 45.2129C66.7615 44.4025 66.6762 43.7395 66.5721 43.7395C66.4683 43.7395 66.2862 44.4025 66.1677 45.2129ZM45.6984 46.2196C44.9368 47.6479 45.4565 48.9833 46.4517 48.1547C47.2698 47.4736 47.4235 45.9127 46.7151 45.4737C46.4597 45.3151 46.0018 45.6508 45.6984 46.2196ZM40.8236 48.0368C40.8198 48.6444 41.0365 49.142 41.3059 49.142C41.9192 49.142 41.9192 48.6209 41.3059 47.6686C40.922 47.0727 40.8299 47.1435 40.8236 48.0368ZM52.8445 48.4402C51.3661 49.9239 52.2171 52.0888 54.2783 52.0888C56.4289 52.0888 57.3689 49.1617 55.5346 48.1769C54.2481 47.4863 53.7467 47.5354 52.8445 48.4402ZM57.4603 49.6267C57.4603 49.9661 58.6118 50.6154 59.2138 50.6154C59.8816 50.6154 59.2546 49.7048 58.4395 49.4907C57.9009 49.3497 57.4603 49.4106 57.4603 49.6267ZM49.6959 50.6575C48.9088 51.2981 48.7726 51.5977 49.2691 51.5977C50.0019 51.5977 51.4019 50.2657 51.0441 49.909C50.9383 49.804 50.3317 50.1404 49.6959 50.6575Z" fill="black"/>
<path fill-rule="evenodd" clip-rule="evenodd" d="M15.41 33.049C7.60419 35.8161 1.79713 45.0433 0.379655 56.9315L0 60.1158L3.2631 58.4343C7.63537 56.1807 10.8784 56.5476 26.6597 61.0834C54.6591 69.1311 67.3972 58.1277 56.5619 60.1158C49.3582 62.8129 48.8176 57.7293 41.0242 53.3041C35.4957 50.1643 28.9357 45.123 29.4005 44.3709C29.6291 43.9999 31.4345 43.6916 33.4125 43.6854C42.1175 43.6562 52.2129 39.9513 54.6975 35.8749C56.7536 32.5007 56.5015 31.7999 53.6583 32.9886C50.5115 34.3043 41.3173 34.287 34.3499 32.9534C27.5845 31.6577 19.2142 31.7001 15.41 33.049Z" fill="white"/>
</g>
<path d="M98.4382 15.4079H101.91V22.7236H109.458V15.4079H112.93V32.6021H109.458V25.4378H101.91V32.6021H98.4382V15.4079ZM120.793 32.87C119.597 32.87 118.649 32.5244 117.95 31.8332C117.259 31.142 116.914 30.2683 116.914 29.2122V20.0909H120.082V28.6996C120.082 29.1345 120.191 29.484 120.408 29.748C120.626 30.0043 120.898 30.1907 121.224 30.3072C121.55 30.4237 121.876 30.4819 122.202 30.4819C122.591 30.4819 122.975 30.4159 123.356 30.2839C123.736 30.1519 124.051 29.9422 124.299 29.6548C124.556 29.3675 124.684 28.9908 124.684 28.5249V20.0909H127.852V32.6021H124.87L124.777 31.2275C124.528 31.7478 124.02 32.1516 123.251 32.439C122.482 32.7263 121.663 32.87 120.793 32.87ZM118.591 14.6158H121.667V17.33H118.591V14.6158ZM123.356 14.6158H126.443V17.33H123.356V14.6158ZM131.592 20.0909H134.76V21.1976C135.242 20.786 135.774 20.452 136.356 20.1957C136.939 19.9395 137.684 19.8113 138.593 19.8113C139.532 19.8113 140.293 19.986 140.876 20.3355C141.458 20.6772 141.886 21.1354 142.157 21.7101C142.429 22.2848 142.565 22.9255 142.565 23.6322V32.6021H139.397V23.807C139.397 23.3643 139.28 23.0265 139.047 22.7935C138.822 22.5605 138.538 22.4013 138.197 22.3159C137.863 22.2304 137.529 22.1877 137.195 22.1877C136.814 22.1877 136.438 22.2576 136.065 22.3974C135.692 22.5372 135.381 22.743 135.133 23.0148C134.884 23.2866 134.76 23.6283 134.76 24.0399V32.6021H131.592V20.0909ZM149.263 32.87C148.192 32.87 147.318 32.5593 146.642 31.9381C145.974 31.3168 145.64 30.4897 145.64 29.4568C145.64 28.8666 145.761 28.3424 146.002 27.8842C146.242 27.426 146.681 27.0027 147.318 26.6144C147.955 26.2183 148.867 25.8339 150.055 25.4611C151.026 25.1505 151.741 24.8631 152.199 24.5991C152.665 24.3351 152.898 23.9856 152.898 23.5507C152.898 23.0459 152.746 22.6692 152.444 22.4207C152.148 22.1644 151.644 22.0363 150.929 22.0363C150.137 22.0363 149.613 22.1916 149.357 22.5023C149.108 22.8129 148.984 23.209 148.984 23.6905V24.1797H146.013V23.807C146.013 22.5955 146.417 21.6286 147.225 20.9063C148.032 20.1841 149.291 19.823 150.999 19.823C152.249 19.823 153.24 19.9977 153.97 20.3472C154.7 20.6966 155.224 21.1898 155.542 21.8266C155.861 22.4557 156.02 23.2012 156.02 24.0632V29.0141C156.02 29.581 156.09 29.9538 156.23 30.1324C156.377 30.3033 156.645 30.3887 157.033 30.3887L156.905 32.6952H156.241C155.371 32.6952 154.696 32.5749 154.214 32.3341C153.733 32.0934 153.379 31.7206 153.154 31.2158C152.82 31.6585 152.315 32.0468 151.64 32.3807C150.972 32.7069 150.18 32.87 149.263 32.87ZM150.323 30.7615C150.712 30.7615 151.166 30.6528 151.686 30.4353C152.207 30.2179 152.611 29.8839 152.898 29.4335V26.2649C152.688 26.4358 152.354 26.626 151.896 26.8357C151.438 27.0377 150.945 27.2357 150.417 27.4298C149.725 27.6861 149.271 27.9696 149.054 28.2802C148.836 28.5909 148.727 28.9248 148.727 29.282C148.727 29.7868 148.875 30.1596 149.17 30.4004C149.465 30.6411 149.85 30.7615 150.323 30.7615ZM147.073 14.6158H150.149V17.33H147.073V14.6158ZM151.838 14.6158H154.925V17.33H151.838V14.6158ZM159.876 20.0909H163.044V21.582C163.231 21.2558 163.557 20.9685 164.023 20.7199C164.496 20.4637 165.036 20.2656 165.642 20.1258C166.248 19.9783 166.854 19.9045 167.459 19.9045L167.389 22.5955C166.986 22.6187 166.547 22.6692 166.073 22.7469C165.599 22.8246 165.141 22.9294 164.698 23.0614C164.264 23.1934 163.895 23.3565 163.592 23.5507C163.289 23.7448 163.106 23.9662 163.044 24.2147V32.6021H159.876V20.0909ZM169.614 28.4899V14.9536H172.783V28.4433C172.783 29.1267 172.942 29.6238 173.261 29.9344C173.587 30.2373 174.173 30.3887 175.02 30.3887H175.416L175.171 32.7418H173.843C172.453 32.7418 171.401 32.4273 170.686 31.7983C169.972 31.1614 169.614 30.0587 169.614 28.4899ZM177.396 20.0909H180.553V32.6021H177.396V20.0909ZM177.373 14.9536H180.565V18.0406H177.373V14.9536Z" fill="white"/>
<path d="M97.9489 57.2453V52.9468C97.9489 51.7818 98.3489 50.8383 99.1488 50.116C99.9487 49.386 101.234 49.021 103.005 49.021C104.698 49.021 105.944 49.3549 106.744 50.0228C107.544 50.6829 107.944 51.5993 107.944 52.772V55.7076H100.139V57.4433C100.139 58.4451 100.337 59.1519 100.733 59.5635C101.137 59.9751 101.921 60.1809 103.086 60.1809C103.777 60.1809 104.321 60.1576 104.717 60.111C105.121 60.0566 105.416 59.9013 105.602 59.645C105.797 59.381 105.925 58.9383 105.987 58.317H107.921C107.82 59.2878 107.606 60.0294 107.28 60.542C106.961 61.0468 106.468 61.3924 105.8 61.5788C105.133 61.7651 104.228 61.8583 103.086 61.8583C101.246 61.8583 99.9293 61.4739 99.1371 60.7051C98.345 59.9362 97.9489 58.783 97.9489 57.2453ZM105.824 54.2282V52.539C105.824 51.7935 105.564 51.3003 105.043 51.0596C104.531 50.8188 103.851 50.6985 103.005 50.6985C102.135 50.6985 101.44 50.8499 100.919 51.1528C100.399 51.4557 100.139 51.9876 100.139 52.7487V54.2282H105.824ZM111.695 57.4317V44.0701H113.885V57.455C113.885 58.1228 113.947 58.6315 114.071 58.981C114.196 59.3227 114.421 59.5557 114.747 59.6799C115.073 59.7964 115.543 59.8547 116.157 59.8547H116.541L116.285 61.6952H115.656C114.755 61.6952 114.009 61.5904 113.419 61.3807C112.837 61.171 112.402 60.7594 112.114 60.1459C111.835 59.5324 111.695 58.6276 111.695 57.4317ZM119.803 57.4317V44.0701H121.993V57.455C121.993 58.1228 122.055 58.6315 122.179 58.981C122.303 59.3227 122.529 59.5557 122.855 59.6799C123.181 59.7964 123.651 59.8547 124.264 59.8547H124.649L124.392 61.6952H123.763C122.863 61.6952 122.117 61.5904 121.527 61.3807C120.944 61.171 120.509 60.7594 120.222 60.1459C119.942 59.5324 119.803 58.6276 119.803 57.4317ZM127.421 57.2453V52.9468C127.421 51.7818 127.821 50.8383 128.621 50.116C129.421 49.386 130.706 49.021 132.477 49.021C134.17 49.021 135.416 49.3549 136.216 50.0228C137.016 50.6829 137.416 51.5993 137.416 52.772V55.7076H129.611V57.4433C129.611 58.4451 129.809 59.1519 130.205 59.5635C130.609 59.9751 131.394 60.1809 132.558 60.1809C133.25 60.1809 133.793 60.1576 134.189 60.111C134.593 60.0566 134.888 59.9013 135.075 59.645C135.269 59.381 135.397 58.9383 135.459 58.317H137.393C137.292 59.2878 137.078 60.0294 136.752 60.542C136.434 61.0468 135.941 61.3924 135.273 61.5788C134.605 61.7651 133.7 61.8583 132.558 61.8583C130.718 61.8583 129.402 61.4739 128.609 60.7051C127.817 59.9362 127.421 58.783 127.421 57.2453ZM135.296 54.2282V52.539C135.296 51.7935 135.036 51.3003 134.516 51.0596C134.003 50.8188 133.323 50.6985 132.477 50.6985C131.607 50.6985 130.912 50.8499 130.392 51.1528C129.871 51.4557 129.611 51.9876 129.611 52.7487V54.2282H135.296ZM141.121 49.254H143.311V51.0013C143.489 50.5354 143.812 50.1626 144.278 49.883C144.751 49.5957 145.287 49.3899 145.885 49.2656C146.483 49.1414 147.054 49.0792 147.598 49.0792L147.528 50.9547C146.829 50.9547 146.157 51.0518 145.512 51.246C144.868 51.4324 144.34 51.677 143.928 51.9799C143.516 52.2827 143.311 52.6089 143.311 52.9584V61.6021H141.121V49.254Z" fill="white"/>
<defs>
<clipPath id="clip0_2_374">
<rect width="94.2368" height="66.6019" fill="white"/>
</clipPath>
</defs>
</svg>
